<?xml version="1.0" standalone="no"?>
<!DOCTYPE svg PUBLIC "-//W3C//DTD SVG 20010904//EN"
 "http://www.w3.org/TR/2001/REC-SVG-20010904/DTD/svg10.dtd">
<svg version="1.0" xmlns="http://www.w3.org/2000/svg"
 width="520.000000pt" height="520.000000pt" viewBox="0 0 520.000000 520.000000"
 preserveAspectRatio="xMidYMid meet">
<metadata>
Created by potrace 1.11, written by Peter Selinger 2001-2013
</metadata>
<g transform="translate(0.000000,520.000000) scale(0.100000,-0.100000)"
fill="#000000" stroke="none">
<path d="M0 5010 c0 -104 1 -190 3 -190 1 0 87 86 191 190 l188 190 -191 0
-191 0 0 -190z"/>
<path d="M598 4903 c-163 -164 -365 -365 -448 -447 l-150 -150 2 -308 3 -309
470 473 c258 260 596 600 752 756 l282 282 -307 0 -308 0 -296 -297z"/>
<path d="M1582 4733 c-600 -599 -1562 -1547 -1573 -1551 -5 -2 -9 -148 -9
-324 l0 -320 238 239 c130 132 597 604 1036 1049 440 445 927 936 1082 1092
l283 282 -44 0 -43 0 -468 -475 c-257 -261 -469 -473 -471 -471 -8 8 59 242
97 338 81 204 210 404 364 566 l40 42 -32 0 c-29 0 -78 -46 -500 -467z"/>
<path d="M3205 4688 c-275 -281 -558 -565 -630 -631 -71 -66 -289 -278 -483
-471 -279 -277 -355 -348 -362 -336 -17 27 -98 284 -105 331 l-7 47 -207 -207
c-114 -113 -277 -274 -362 -356 -85 -83 -355 -349 -602 -593 l-447 -442 0
-319 0 -319 418 421 c230 232 546 554 702 715 156 162 303 310 327 329 23 19
179 175 345 346 485 500 1912 1937 1924 1937 5 0 23 14 39 30 l29 30 -40 -1
c-38 -1 -50 -12 -539 -511z"/>
<path d="M4566 5178 c10 -13 41 -47 67 -76 l49 -53 -64 -67 c-34 -37 -151
-162 -258 -277 -107 -116 -294 -309 -415 -430 -443 -444 -1204 -1193 -1325
-1305 -68 -63 -184 -173 -256 -244 -156 -152 -126 -153 -284 10 l-105 109
-260 -258 c-143 -142 -285 -282 -315 -310 -30 -28 -358 -350 -727 -716 l-673
-665 0 -331 1 -330 152 152 c84 84 195 195 247 246 52 52 239 244 415 428 175
184 533 550 795 815 1028 1040 1598 1620 1836 1867 136 142 253 261 260 265 7
4 234 226 506 493 271 267 534 523 583 569 50 46 101 94 115 107 l25 23 -194
0 -194 0 19 -22z"/>
<path d="M5190 4933 c0 -5 -59 -68 -130 -141 -72 -73 -130 -138 -130 -145 0
-7 13 -46 30 -88 30 -78 80 -257 80 -288 0 -10 -80 -98 -177 -197 -98 -99
-391 -397 -652 -663 -261 -266 -483 -486 -493 -490 -10 -3 -173 -160 -362
-348 l-345 -342 -99 24 c-54 13 -141 40 -193 59 l-93 35 -25 -22 c-14 -12 -91
-87 -171 -167 -81 -80 -209 -206 -286 -280 -76 -75 -470 -461 -874 -860 -923
-910 -990 -975 -1019 -1000 l-24 -20 350 0 349 0 34 35 c19 19 31 35 26 35
-18 0 30 51 335 358 179 180 437 442 573 582 278 285 1033 1051 1887 1913 311
315 606 614 655 666 49 51 241 237 427 413 l337 320 0 309 c0 170 -2 309 -5
309 -3 0 -5 -3 -5 -7z"/>
<path d="M5122 3712 l-74 -74 -33 -127 c-59 -222 -154 -423 -287 -603 -81
-111 -271 -297 -388 -381 -170 -120 -427 -235 -633 -282 l-68 -16 -213 -212
c-117 -117 -410 -405 -651 -642 -241 -236 -652 -643 -914 -902 l-476 -473 333
0 332 0 38 41 c115 128 291 310 682 704 240 242 521 527 626 634 104 107 552
558 997 1003 l807 808 -2 297 -3 298 -73 -73z"/>
<path d="M5045 2507 c-82 -86 -231 -236 -330 -334 -99 -98 -416 -413 -705
-700 -289 -287 -741 -735 -1005 -997 l-480 -476 333 0 332 0 38 41 c81 90 387
405 582 599 113 113 472 473 798 801 l592 597 -2 312 -3 313 -150 -156z"/>
<path d="M4425 759 l-760 -759 340 0 341 0 37 38 c20 21 37 42 37 48 0 12 422
434 435 434 6 0 86 75 178 168 l167 167 0 333 c0 182 -3 332 -7 331 -5 0 -350
-342 -768 -760z"/>
<path d="M5098 308 c-89 -90 -251 -221 -345 -279 l-38 -24 239 -3 c131 -1 241
-1 243 1 2 2 2 94 1 203 l-3 200 -97 -98z m-224 -239 c-3 -5 -10 -7 -15 -3 -5
3 -7 10 -3 15 3 5 10 7 15 3 5 -3 7 -10 3 -15z"/>
</g>
</svg>
